<?xml version="1.0" standalone="no"?>
<!DOCTYPE svg PUBLIC "-//W3C//DTD SVG 20010904//EN"
 "http://www.w3.org/TR/2001/REC-SVG-20010904/DTD/svg10.dtd">
<svg version="1.0" xmlns="http://www.w3.org/2000/svg"
 width="800.000000pt" height="800.000000pt" viewBox="0 0 800.000000 800.000000"
 preserveAspectRatio="xMidYMid meet">

<g transform="translate(0.000000,800.000000) scale(0.100000,-0.100000)"
fill="#000000" stroke="none">
<path d="M3706 5574 c-11 -28 -6 -61 10 -75 14 -11 18 -10 30 6 17 22 18 40 4
66 -13 23 -36 25 -44 3z"/>
<path d="M3590 5525 c-6 -8 -10 -29 -8 -47 4 -39 31 -50 48 -18 22 42 -13 98
-40 65z"/>
<path d="M3467 5473 c-13 -13 -7 -71 9 -84 14 -11 18 -10 30 6 17 22 18 40 4
66 -11 19 -31 25 -43 12z"/>
<path d="M3352 5418 c-22 -22 -12 -88 14 -88 24 0 39 46 26 75 -13 28 -22 31
-40 13z"/>
<path d="M3706 5384 c-11 -28 -6 -61 10 -75 14 -11 18 -10 30 6 17 22 18 40 4
66 -13 23 -36 25 -44 3z"/>
<path d="M3227 5363 c-12 -12 -7 -70 7 -82 11 -9 18 -8 30 4 19 19 20 38 6 66
-11 19 -31 25 -43 12z"/>
<path d="M3590 5335 c-6 -8 -10 -29 -8 -47 4 -39 31 -50 48 -18 22 42 -13 98
-40 65z"/>
<path d="M3111 5307 c-12 -12 -15 -46 -5 -71 15 -40 61 5 50 49 -7 27 -29 38
-45 22z"/>
<path d="M3467 5283 c-13 -13 -7 -71 9 -84 14 -11 18 -10 30 6 17 22 18 40 4
66 -11 19 -31 25 -43 12z"/>
<path d="M4016 5214 c-93 -40 -170 -75 -172 -77 -4 -3 90 -492 100 -525 5 -15
-5 -23 -49 -41 l-55 -23 2 -246 3 -245 149 -69 149 -69 39 15 c54 22 58 21 58
-24 0 -37 2 -40 47 -60 50 -22 56 -21 145 18 5 2 8 -18 8 -45 0 -48 1 -48 49
-69 48 -22 49 -22 91 -3 23 11 44 19 46 19 2 0 4 -18 4 -40 0 -38 3 -41 50
-65 46 -23 53 -24 78 -11 15 7 37 17 50 20 20 7 22 4 22 -37 0 -42 1 -44 49
-67 48 -22 51 -22 90 -6 23 9 43 16 46 16 2 0 5 -17 7 -37 3 -33 9 -41 47 -62
44 -24 45 -24 92 -8 25 9 49 17 53 17 3 0 6 -18 6 -40 0 -38 3 -42 45 -62 40
-20 49 -21 81 -9 40 14 45 12 59 -30 8 -22 24 -36 61 -53 l50 -23 177 75 177
75 -2 241 -3 241 -44 24 c-38 21 -48 22 -79 13 -61 -19 -45 -8 41 29 l82 36 3
54 3 55 -88 40 -88 40 53 18 52 18 0 52 c0 29 -5 57 -10 62 -8 8 3 16 35 28
l46 18 -3 55 -3 56 -146 68 -145 69 -129 -55 c-71 -30 -131 -55 -132 -55 -2 0
-3 9 -3 20 0 14 15 27 50 45 48 25 50 27 50 69 0 24 -6 48 -13 54 -7 6 -75 40
-151 76 l-138 64 -80 -34 c-44 -19 -81 -34 -83 -34 -2 0 -5 34 -7 76 l-3 76
-147 68 -148 69 -79 -35 c-43 -19 -84 -34 -89 -34 -6 0 -5 20 4 53 21 78 19
85 -30 109 -41 19 -49 20 -88 9 -24 -8 -45 -13 -48 -13 -3 1 -9 19 -13 41 -7
34 -13 41 -50 56 -23 10 -46 18 -52 20 -5 1 -86 -30 -179 -71z m229 27 c28
-17 32 -26 49 -117 10 -54 23 -121 28 -149 l11 -49 29 119 c16 65 30 120 32
122 6 6 76 -30 76 -39 0 -8 -63 -266 -91 -371 l-10 -37 -38 20 c-23 11 -41 29
-44 42 -3 13 -24 118 -46 233 -23 116 -43 218 -45 228 -5 22 11 22 49 -2z
m543 -253 l132 -62 0 -232 0 -233 -136 64 c-75 36 -138 65 -140 65 -2 0 -4
104 -4 230 0 127 3 230 8 230 4 0 67 -28 140 -62z m477 -225 l125 -58 0 -37
c0 -29 -6 -41 -25 -54 -36 -24 -59 -15 -66 26 -4 19 -7 -52 -8 -157 0 -106 -3
-193 -6 -193 -2 0 -20 8 -40 17 l-35 17 0 193 0 193 -50 25 c-46 23 -50 28
-50 61 0 42 -15 45 155 -33z m-928 -155 l133 -63 0 -37 c0 -21 -2 -38 -4 -38
-3 0 -48 20 -100 44 l-96 45 0 -153 0 -153 100 -47 100 -46 0 -40 0 -39 -117
55 c-65 31 -128 61 -140 67 -23 10 -23 12 -23 239 0 125 3 228 8 228 4 0 67
-28 139 -62z m1491 -111 c17 -8 22 -19 22 -49 0 -21 -2 -38 -5 -38 -3 0 -46
20 -95 45 -49 25 -92 45 -95 45 -3 0 -5 -25 -5 -55 l0 -55 65 -32 c63 -31 65
-34 65 -70 l0 -37 -65 29 -65 29 1 -57 0 -57 100 -47 c99 -47 99 -47 99 -84 0
-25 -4 -35 -13 -31 -7 2 -70 31 -140 63 l-127 59 0 232 0 232 118 -55 c64 -31
127 -61 140 -67z m-1158 -142 l0 -95 60 -30 60 -30 0 95 c0 52 2 95 5 95 2 0
20 -8 40 -17 l35 -17 0 -233 0 -233 -40 20 -40 20 0 98 -1 97 -59 27 -60 27 0
-95 c0 -51 -2 -94 -5 -94 -2 0 -20 8 -40 17 l-35 17 0 233 0 233 40 -20 40
-20 0 -95z m190 45 c0 -5 -4 -10 -10 -10 -5 0 -10 5 -10 10 0 6 5 10 10 10 6
0 10 -4 10 -10z m269 -165 l130 -60 1 -233 0 -232 -40 20 -40 20 0 95 0 95
-37 19 c-85 42 -83 44 -83 -58 0 -50 -2 -91 -4 -91 -2 0 -20 7 -40 15 l-36 15
0 231 c0 132 4 229 9 227 5 -1 68 -30 140 -63z m321 -384 l0 -230 -40 17 -40
17 0 233 0 232 40 -20 40 -20 0 -229z m262 -30 l56 -166 1 138 c1 75 3 137 6
137 2 0 20 -8 40 -17 l35 -17 0 -228 c0 -140 -4 -228 -10 -228 -5 0 -25 8 -44
17 -34 16 -38 23 -90 177 l-54 161 -1 -132 c-1 -73 -3 -133 -6 -133 -2 0 -20
8 -40 17 l-35 17 0 233 0 233 43 -21 43 -21 56 -167z"/>
<path d="M4720 4786 l0 -152 55 -27 c31 -15 58 -27 60 -27 3 0 5 69 5 153 l0
152 -60 27 -60 26 0 -152z"/>
<path d="M5324 4645 c11 -8 26 -15 33 -15 22 0 14 8 -19 19 -30 10 -31 9 -14
-4z"/>
<path d="M5060 4131 l0 -58 60 -26 60 -26 0 57 -1 57 -59 27 -60 27 0 -58z"/>
<path d="M2974 5236 c-8 -35 4 -66 26 -66 22 0 34 31 26 66 -4 15 -14 24 -26
24 -12 0 -22 -9 -26 -24z"/>
<path d="M3351 5226 c-18 -22 -10 -80 11 -84 26 -5 45 41 30 73 -13 28 -24 31
-41 11z"/>
<path d="M2860 5191 c-14 -26 -13 -44 4 -66 12 -16 16 -17 30 -6 19 16 21 62
4 79 -17 17 -26 15 -38 -7z"/>
<path d="M3706 5194 c-11 -28 -6 -61 10 -75 14 -11 18 -10 30 6 17 22 18 40 4
66 -13 23 -36 25 -44 3z"/>
<path d="M3227 5173 c-12 -12 -7 -70 7 -82 11 -9 18 -8 30 4 19 19 20 38 6 66
-11 19 -31 25 -43 12z"/>
<path d="M3590 5145 c-6 -8 -10 -29 -8 -47 4 -39 31 -50 48 -18 22 42 -13 98
-40 65z"/>
<path d="M2734 5126 c-8 -35 4 -66 26 -66 22 0 34 31 26 66 -4 15 -14 24 -26
24 -12 0 -22 -9 -26 -24z"/>
<path d="M3112 5118 c-22 -22 -12 -88 14 -88 24 0 39 46 26 75 -13 28 -22 31
-40 13z"/>
<path d="M2620 5081 c-14 -26 -13 -44 4 -66 12 -16 16 -17 30 -6 19 16 21 62
4 79 -17 17 -26 15 -38 -7z"/>
<path d="M3467 5093 c-13 -13 -7 -71 9 -84 14 -11 18 -10 30 6 17 22 18 40 4
66 -11 19 -31 25 -43 12z"/>
<path d="M2974 5046 c-8 -35 4 -66 26 -66 22 0 34 31 26 66 -4 15 -14 24 -26
24 -12 0 -22 -9 -26 -24z"/>
<path d="M3352 5038 c-22 -22 -12 -88 14 -88 24 0 39 46 26 75 -13 28 -22 31
-40 13z"/>
<path d="M2494 5016 c-8 -35 4 -66 26 -66 22 0 34 31 26 66 -4 15 -14 24 -26
24 -12 0 -22 -9 -26 -24z"/>
<path d="M2860 5001 c-14 -26 -13 -44 4 -66 12 -16 16 -17 30 -6 19 16 21 62
4 79 -17 17 -26 15 -38 -7z"/>
<path d="M3707 5013 c-13 -13 -7 -71 9 -84 14 -11 18 -10 30 6 17 22 18 40 4
66 -11 19 -31 25 -43 12z"/>
<path d="M2382 4978 c-16 -16 -15 -50 2 -73 12 -16 16 -17 30 -6 26 22 16 91
-14 91 -3 0 -11 -5 -18 -12z"/>
<path d="M3227 4983 c-12 -12 -7 -70 7 -82 11 -9 18 -8 30 4 19 19 20 38 6 66
-11 19 -31 25 -43 12z"/>
<path d="M3591 4956 c-18 -22 -10 -80 11 -84 26 -5 45 41 30 73 -13 28 -24 31
-41 11z"/>
<path d="M2734 4936 c-8 -35 4 -66 26 -66 22 0 34 31 26 66 -4 15 -14 24 -26
24 -12 0 -22 -9 -26 -24z"/>
<path d="M3112 4928 c-22 -22 -12 -88 14 -88 24 0 39 46 26 75 -13 28 -22 31
-40 13z"/>
<path d="M2622 4898 c-17 -17 -15 -63 3 -78 30 -25 57 26 39 74 -7 19 -25 21
-42 4z"/>
<path d="M3467 4903 c-12 -12 -7 -70 7 -82 11 -9 18 -8 30 4 19 19 20 38 6 66
-11 19 -31 25 -43 12z"/>
<path d="M2974 4856 c-8 -35 4 -66 26 -66 22 0 34 31 26 66 -4 15 -14 24 -26
24 -12 0 -22 -9 -26 -24z"/>
<path d="M3352 4848 c-22 -22 -12 -88 14 -88 24 0 39 46 26 75 -13 28 -22 31
-40 13z"/>
<path d="M2494 4826 c-8 -35 4 -66 26 -66 22 0 34 31 26 66 -4 15 -14 24 -26
24 -12 0 -22 -9 -26 -24z"/>
<path d="M2860 4811 c-14 -26 -13 -44 4 -66 12 -16 16 -17 30 -6 19 16 21 62
4 79 -17 17 -26 15 -38 -7z"/>
<path d="M3706 4814 c-11 -28 -6 -61 10 -75 14 -11 18 -10 30 6 17 22 18 40 4
66 -13 23 -36 25 -44 3z"/>
<path d="M2382 4788 c-16 -16 -15 -50 2 -73 12 -16 16 -17 30 -6 26 22 16 91
-14 91 -3 0 -11 -5 -18 -12z"/>
<path d="M3227 4793 c-12 -12 -7 -70 7 -82 11 -9 18 -8 30 4 19 19 20 38 6 66
-11 19 -31 25 -43 12z"/>
<path d="M3591 4766 c-18 -22 -10 -80 11 -84 26 -5 45 41 30 73 -13 28 -24 31
-41 11z"/>
<path d="M2734 4746 c-8 -35 4 -66 26 -66 22 0 34 31 26 66 -4 15 -14 24 -26
24 -12 0 -22 -9 -26 -24z"/>
<path d="M3104 4726 c-9 -37 -1 -70 18 -74 26 -5 45 41 30 73 -15 32 -40 32
-48 1z"/>
<path d="M2620 4701 c-14 -26 -13 -44 4 -66 12 -16 16 -17 30 -6 19 16 21 62
4 79 -17 17 -26 15 -38 -7z"/>
<path d="M3467 4713 c-13 -13 -7 -71 9 -84 14 -11 18 -10 30 6 17 22 18 40 4
66 -11 19 -31 25 -43 12z"/>
<path d="M2986 4685 c-30 -30 -15 -90 20 -83 14 2 20 13 22 39 4 45 -18 68
-42 44z"/>
<path d="M2499 4646 c-15 -33 -4 -76 20 -76 30 0 44 63 19 88 -18 18 -27 15
-39 -12z"/>
<path d="M3352 4658 c-22 -22 -12 -88 14 -88 24 0 39 46 26 75 -13 28 -22 31
-40 13z"/>
<path d="M2860 4621 c-14 -26 -13 -44 4 -66 12 -16 16 -17 30 -6 19 16 21 62
4 79 -17 17 -26 15 -38 -7z"/>
<path d="M3712 4628 c-22 -22 -12 -88 14 -88 24 0 39 46 26 75 -13 28 -22 31
-40 13z"/>
<path d="M2382 4598 c-16 -16 -15 -50 2 -73 12 -16 16 -17 30 -6 26 22 16 91
-14 91 -3 0 -11 -5 -18 -12z"/>
<path d="M3227 4603 c-12 -12 -7 -70 7 -82 11 -9 18 -8 30 4 19 19 20 38 6 66
-11 19 -31 25 -43 12z"/>
<path d="M2734 4556 c-8 -35 4 -66 26 -66 22 0 34 31 26 66 -4 15 -14 24 -26
24 -12 0 -22 -9 -26 -24z"/>
<path d="M3587 4573 c-12 -12 -7 -70 7 -82 11 -9 18 -8 30 4 19 19 20 38 6 66
-11 19 -31 25 -43 12z"/>
<path d="M3104 4535 c-8 -34 3 -75 21 -75 9 0 21 11 27 25 13 30 -3 75 -27 75
-8 0 -17 -11 -21 -25z"/>
<path d="M2620 4511 c-14 -26 -13 -44 4 -66 12 -16 16 -17 30 -6 19 16 21 62
4 79 -17 17 -26 15 -38 -7z"/>
<path d="M3464 4505 c-8 -34 3 -75 21 -75 24 0 40 45 27 75 -6 14 -18 25 -27
25 -8 0 -17 -11 -21 -25z"/>
<path d="M2974 4476 c-8 -35 4 -66 26 -66 22 0 34 31 26 66 -4 15 -14 24 -26
24 -12 0 -22 -9 -26 -24z"/>
<path d="M2494 4446 c-8 -35 4 -66 26 -66 22 0 34 31 26 66 -4 15 -14 24 -26
24 -12 0 -22 -9 -26 -24z"/>
<path d="M3347 4463 c-12 -12 -7 -70 7 -82 11 -9 18 -8 30 4 19 19 20 38 6 66
-11 19 -31 25 -43 12z"/>
<path d="M2862 4438 c-17 -17 -15 -63 3 -78 30 -25 57 26 39 74 -7 19 -25 21
-42 4z"/>
<path d="M3711 4436 c-18 -22 -10 -80 11 -84 26 -5 45 41 30 73 -13 28 -24 31
-41 11z"/>
<path d="M2376 4404 c-10 -25 -7 -49 8 -69 12 -16 16 -17 30 -6 28 24 18 91
-14 91 -10 0 -21 -7 -24 -16z"/>
<path d="M3224 4395 c-8 -34 3 -75 21 -75 9 0 21 11 27 25 13 30 -3 75 -27 75
-8 0 -17 -11 -21 -25z"/>
<path d="M2734 4366 c-8 -35 4 -66 26 -66 22 0 34 31 26 66 -4 15 -14 24 -26
24 -12 0 -22 -9 -26 -24z"/>
<path d="M3587 4383 c-12 -12 -7 -70 7 -82 11 -9 18 -8 30 4 19 19 20 38 6 66
-11 19 -31 25 -43 12z"/>
<path d="M3107 4353 c-11 -11 -8 -68 5 -81 9 -9 16 -8 30 5 19 17 23 39 12 67
-6 16 -35 22 -47 9z"/>
<path d="M2620 4321 c-14 -26 -13 -44 4 -66 12 -16 16 -17 30 -6 19 16 21 62
4 79 -17 17 -26 15 -38 -7z"/>
<path d="M3464 4315 c-8 -34 3 -75 21 -75 24 0 40 45 27 75 -6 14 -18 25 -27
25 -8 0 -17 -11 -21 -25z"/>
<path d="M2980 4291 c-14 -26 -13 -44 4 -66 12 -16 16 -17 30 -6 19 16 21 62
4 79 -17 17 -26 15 -38 -7z"/>
<path d="M2494 4256 c-8 -35 4 -66 26 -66 22 0 34 31 26 66 -4 15 -14 24 -26
24 -12 0 -22 -9 -26 -24z"/>
<path d="M3347 4273 c-12 -12 -7 -70 7 -82 31 -26 63 48 34 77 -13 13 -31 16
-41 5z"/>
<path d="M3712 4248 c-22 -22 -12 -88 14 -88 24 0 39 46 26 75 -13 28 -22 31
-40 13z"/>
<path d="M2854 4226 c-8 -35 4 -66 26 -66 22 0 34 31 26 66 -4 15 -14 24 -26
24 -12 0 -22 -9 -26 -24z"/>
<path d="M2382 4218 c-16 -16 -15 -50 2 -73 12 -16 16 -17 30 -6 26 22 16 91
-14 91 -3 0 -11 -5 -18 -12z"/>
<path d="M3224 4205 c-8 -34 3 -75 21 -75 9 0 21 11 27 25 13 30 -3 75 -27 75
-8 0 -17 -11 -21 -25z"/>
<path d="M2742 4188 c-16 -16 -15 -50 2 -73 12 -16 16 -17 30 -6 26 22 16 91
-14 91 -3 0 -11 -5 -18 -12z"/>
<path d="M3587 4193 c-12 -12 -7 -70 7 -82 11 -9 18 -8 30 4 19 19 20 38 6 66
-11 19 -31 25 -43 12z"/>
<path d="M3110 4165 c-6 -8 -10 -29 -8 -47 2 -25 8 -34 25 -36 17 -3 24 3 29
22 12 48 -21 92 -46 61z"/>
<path d="M2619 4126 c-15 -33 -4 -76 20 -76 30 0 44 63 19 88 -18 18 -27 15
-39 -12z"/>
<path d="M3464 4125 c-8 -34 3 -75 21 -75 24 0 40 45 27 75 -6 14 -18 25 -27
25 -8 0 -17 -11 -21 -25z"/>
<path d="M2982 4108 c-17 -17 -15 -63 3 -78 30 -25 57 26 39 74 -7 19 -25 21
-42 4z"/>
<path d="M2496 4074 c-10 -25 -7 -49 8 -69 12 -16 16 -17 30 -6 28 24 18 91
-14 91 -10 0 -21 -7 -24 -16z"/>
<path d="M3347 4083 c-12 -12 -7 -70 7 -82 31 -26 63 48 34 77 -13 13 -31 16
-41 5z"/>
<path d="M3712 4058 c-22 -22 -12 -88 14 -88 24 0 39 46 26 75 -13 28 -22 31
-40 13z"/>
<path d="M2854 4036 c-8 -35 4 -66 26 -66 22 0 34 31 26 66 -4 15 -14 24 -26
24 -12 0 -22 -9 -26 -24z"/>
<path d="M2380 4021 c-14 -28 -12 -57 5 -71 33 -27 64 47 33 78 -17 17 -26 15
-38 -7z"/>
<path d="M3224 4015 c-8 -34 3 -75 21 -75 9 0 21 11 27 25 13 30 -3 75 -27 75
-8 0 -17 -11 -21 -25z"/>
<path d="M2742 3998 c-16 -16 -15 -50 2 -73 12 -16 16 -17 30 -6 26 22 16 91
-14 91 -3 0 -11 -5 -18 -12z"/>
<path d="M3587 4003 c-12 -12 -7 -70 7 -82 11 -9 18 -8 30 4 19 19 20 38 6 66
-11 19 -31 25 -43 12z"/>
<path d="M3104 3966 c-11 -30 0 -71 20 -71 26 0 40 26 32 58 -7 29 -42 38 -52
13z"/>
<path d="M2620 3941 c-14 -28 -12 -57 5 -71 33 -27 64 47 33 78 -17 17 -26 15
-38 -7z"/>
<path d="M3464 3936 c-9 -37 -1 -70 18 -74 26 -5 45 41 30 73 -15 32 -40 32
-48 1z"/>
<path d="M2982 3918 c-16 -16 -15 -50 2 -73 12 -16 16 -17 30 -6 26 22 16 91
-14 91 -3 0 -11 -5 -18 -12z"/>
<path d="M2494 3874 c-7 -28 9 -74 26 -74 17 0 33 46 26 74 -4 17 -13 26 -26
26 -13 0 -22 -9 -26 -26z"/>
<path d="M3347 3893 c-12 -12 -7 -70 7 -82 31 -26 63 48 34 77 -13 13 -31 16
-41 5z"/>
<path d="M2859 3856 c-15 -33 -4 -76 20 -76 30 0 44 63 19 88 -18 18 -27 15
-39 -12z"/>
<path d="M3712 3868 c-22 -22 -12 -88 14 -88 24 0 39 46 26 75 -13 28 -22 31
-40 13z"/>
<path d="M2381 3836 c-17 -20 -10 -67 12 -80 14 -8 20 -8 27 4 13 21 12 64 -2
78 -16 16 -23 15 -37 -2z"/>
<path d="M3224 3825 c-8 -34 3 -75 21 -75 9 0 21 11 27 25 13 30 -3 75 -27 75
-8 0 -17 -11 -21 -25z"/>
<path d="M2742 3808 c-16 -16 -15 -50 2 -73 12 -16 16 -17 30 -6 26 22 16 91
-14 91 -3 0 -11 -5 -18 -12z"/>
<path d="M3587 3813 c-12 -12 -7 -70 7 -82 11 -9 18 -8 30 4 19 19 20 38 6 66
-11 19 -31 25 -43 12z"/>
<path d="M3104 3776 c-11 -30 0 -71 20 -71 26 0 40 26 32 58 -7 29 -42 38 -52
13z"/>
<path d="M2620 3751 c-14 -28 -12 -57 5 -71 33 -27 64 47 33 78 -17 17 -26 15
-38 -7z"/>
<path d="M3464 3745 c-8 -34 3 -75 21 -75 24 0 40 45 27 75 -6 14 -18 25 -27
25 -8 0 -17 -11 -21 -25z"/>
<path d="M2982 3728 c-16 -16 -15 -50 2 -73 12 -16 16 -17 30 -6 26 22 16 91
-14 91 -3 0 -11 -5 -18 -12z"/>
<path d="M3088 3403 c-406 -185 -738 -339 -738 -342 0 -3 161 -79 358 -168
196 -89 529 -241 740 -337 l383 -175 292 132 c161 74 493 225 740 337 246 112
447 206 447 210 0 6 -1424 658 -1470 674 -8 3 -347 -146 -752 -331z m712 82
c16 -8 41 -31 56 -50 l27 -36 21 20 c62 58 174 55 239 -7 42 -40 60 -80 60
-137 0 -59 -20 -102 -63 -138 -20 -18 -30 -35 -30 -54 0 -16 -5 -34 -12 -41
-9 -9 -8 -16 5 -29 15 -15 15 -18 1 -34 -12 -13 -13 -22 -5 -38 19 -34 12 -61
-25 -112 -20 -27 -38 -49 -42 -49 -3 0 -16 9 -28 21 l-21 20 -37 -25 c-53 -36
-133 -49 -261 -44 -113 5 -183 25 -213 60 -9 12 -12 60 -10 189 l3 174 42 20
42 20 1 80 c0 93 23 144 79 182 41 27 126 31 171 8z"/>
<path d="M3674 3431 c-40 -17 -54 -50 -54 -126 l0 -70 100 0 100 0 0 72 c0 60
-4 76 -23 98 -24 29 -86 42 -123 26z"/>
<path d="M3944 3411 c-74 -45 -99 -119 -66 -194 11 -25 34 -55 51 -68 l31 -23
0 -121 c0 -115 7 -145 32 -145 4 0 8 61 8 135 0 83 4 135 10 135 6 0 10 -57
10 -150 0 -82 4 -150 8 -150 11 0 52 56 52 71 0 7 -7 21 -16 30 -15 17 -15 21
-1 42 14 22 14 26 -1 40 -14 15 -14 18 1 35 9 10 17 33 17 50 0 23 8 36 30 52
90 64 78 213 -20 262 -46 23 -107 23 -146 -1z m96 -51 c46 -25 45 -76 -1 -100
-62 -34 -103 63 -41 99 21 13 20 13 42 1z"/>
<path d="M3994 3325 c-4 -8 -3 -22 0 -31 8 -21 50 -14 54 10 6 31 -43 50 -54
21z"/>
<path d="M3648 3203 c-21 -3 -28 -10 -28 -28 0 -12 -7 -26 -16 -29 -23 -9 -54
2 -54 20 0 18 -21 18 -46 -1 -18 -15 -18 -15 -1 -29 45 -35 312 -47 387 -18
23 9 23 9 5 19 -11 6 -26 8 -33 6 -17 -6 -42 15 -42 37 0 24 -89 36 -172 23z"/>
<path d="M3490 2966 c0 -130 1 -136 23 -150 80 -51 372 -45 425 8 14 13 14 20
4 36 -7 12 -12 59 -12 126 l0 106 -27 -6 c-90 -22 -300 -17 -390 10 l-23 6 0
-136z m274 32 c7 -12 6 -24 -3 -42 -11 -19 -11 -32 -2 -57 16 -48 15 -49 -39
-49 -54 0 -55 1 -39 49 9 25 9 38 -1 56 -19 35 2 67 42 63 17 -2 36 -11 42
-20z"/>
<path d="M2494 3684 c-7 -28 9 -74 26 -74 17 0 33 46 26 74 -4 17 -13 26 -26
26 -13 0 -22 -9 -26 -26z"/>
<path d="M3347 3703 c-12 -12 -7 -70 7 -82 28 -23 57 30 40 73 -6 16 -35 22
-47 9z"/>
<path d="M2854 3656 c-8 -35 4 -66 26 -66 22 0 34 31 26 66 -4 15 -14 24 -26
24 -12 0 -22 -9 -26 -24z"/>
<path d="M2380 3641 c-14 -26 -13 -44 4 -66 12 -16 16 -17 30 -6 19 16 21 62
4 79 -17 17 -26 15 -38 -7z"/>
<path d="M3224 3635 c-8 -34 3 -75 21 -75 9 0 21 11 27 25 13 30 -3 75 -27 75
-8 0 -17 -11 -21 -25z"/>
<path d="M2742 3618 c-16 -16 -15 -50 2 -73 12 -16 16 -17 30 -6 26 22 16 91
-14 91 -3 0 -11 -5 -18 -12z"/>
<path d="M3104 3586 c-11 -30 0 -71 20 -71 26 0 40 26 32 58 -7 29 -42 38 -52
13z"/>
<path d="M2620 3561 c-14 -28 -12 -57 5 -71 33 -27 64 47 33 78 -17 17 -26 15
-38 -7z"/>
<path d="M2982 3538 c-16 -16 -15 -50 2 -73 12 -16 16 -17 30 -6 26 22 16 91
-14 91 -3 0 -11 -5 -18 -12z"/>
<path d="M2494 3494 c-7 -28 9 -74 26 -74 17 0 33 46 26 74 -4 17 -13 26 -26
26 -13 0 -22 -9 -26 -26z"/>
<path d="M2854 3466 c-8 -35 4 -66 26 -66 22 0 34 31 26 66 -4 15 -14 24 -26
24 -12 0 -22 -9 -26 -24z"/>
<path d="M2380 3451 c-14 -26 -13 -44 4 -66 12 -16 16 -17 30 -6 19 16 21 62
4 79 -17 17 -26 15 -38 -7z"/>
<path d="M2742 3428 c-16 -16 -15 -50 3 -74 15 -19 15 -19 30 0 8 11 15 29 15
41 0 20 -17 45 -30 45 -3 0 -11 -5 -18 -12z"/>
<path d="M2620 3369 c-15 -27 -9 -59 13 -73 14 -8 20 -8 27 4 13 21 12 64 -2
78 -17 17 -26 15 -38 -9z"/>
<path d="M2494 3304 c-7 -28 9 -74 26 -74 17 0 33 46 26 74 -4 17 -13 26 -26
26 -13 0 -22 -9 -26 -26z"/>
<path d="M2380 3261 c-14 -26 -13 -44 4 -66 12 -16 16 -17 30 -6 19 16 21 62
4 79 -17 17 -26 15 -38 -7z"/>
</g>
</svg>
